<svg xmlns="http://www.w3.org/2000/svg" width="24" height="24" viewBox="0 0 24 24">
  <g id="hide" transform="translate(-557 -249)">
    <g id="Group_14148" data-name="Group 14148" transform="translate(560 253)" opacity="0.501">
      <g id="Group_10444" data-name="Group 10444" transform="translate(0)">
        <path id="Path_11006" data-name="Path 11006" d="M47.728,35.951A12.884,12.884,0,0,0,44.966,33.7l-2.818,2.818a2.491,2.491,0,0,1,.076.643,3.019,3.019,0,0,1-3.008,3.027,2.636,2.636,0,0,1-.662-.076L36.7,41.966a10.539,10.539,0,0,0,2.516.3,11.718,11.718,0,0,0,8.512-3.878A1.824,1.824,0,0,0,47.728,35.951Z" transform="translate(-30.221 -29.274)" fill="#949ea0"/>
        <path id="Path_11007" data-name="Path 11007" d="M18.292,10.584a.959.959,0,0,0-1.362,0l-2.837,2.837a10.693,10.693,0,0,0-2.648-.322,11.718,11.718,0,0,0-8.512,3.878,1.784,1.784,0,0,0,0,2.44,12.742,12.742,0,0,0,2.856,2.308L3.84,23.673A.963.963,0,1,0,5.2,25.035l13.09-13.09A.959.959,0,0,0,18.292,10.584Zm-9.855,7.6a3,3,0,0,1,3.008-3.008,2.88,2.88,0,0,1,.794.113L8.531,18.982A3.517,3.517,0,0,1,8.437,18.188Z" transform="translate(-2.45 -10.3)" fill="#949ea0"/>
      </g>
    </g>
    <rect id="Rectangle_7351" data-name="Rectangle 7351" width="24" height="24" transform="translate(557 249)" fill="none"/>
  </g>
</svg>
