<svg xmlns="http://www.w3.org/2000/svg" width="238.776" height="123.195" viewBox="0 0 238.776 123.195">
  <g id="logo" transform="translate(-18 -17.999)">
    <g id="Group_1" data-name="Group 1" transform="translate(170.959 89.886)">
      <path id="Path_1" data-name="Path 1" d="M253.326,161.265a2.429,2.429,0,0,1-2.694-2.693v-.763a2.43,2.43,0,0,1,2.694-2.693h.584a2.432,2.432,0,0,1,2.694,2.693v.763a2.432,2.432,0,0,1-2.694,2.693Z" transform="translate(-250.632 -136.847)"/>
      <path id="Path_2" data-name="Path 2" d="M293.207,139.812a12.633,12.633,0,0,1-1.637,6.486,11.762,11.762,0,0,1-4.4,4.376,12.913,12.913,0,0,1-12.345,0,11.762,11.762,0,0,1-4.4-4.376,13.653,13.653,0,0,1,0-12.97,11.924,11.924,0,0,1,4.4-4.4,12.754,12.754,0,0,1,12.345,0,11.938,11.938,0,0,1,4.4,4.4,12.632,12.632,0,0,1,1.637,6.484m-5.386,0a8.174,8.174,0,0,0-.919-3.972,6.852,6.852,0,0,0-2.469-2.625,6.72,6.72,0,0,0-6.868,0,6.849,6.849,0,0,0-2.47,2.625,8.948,8.948,0,0,0,0,7.9,6.857,6.857,0,0,0,2.47,2.625,6.72,6.72,0,0,0,6.868,0,6.861,6.861,0,0,0,2.469-2.625,8.074,8.074,0,0,0,.919-3.929" transform="translate(-256.851 -127.333)"/>
      <path id="Path_3" data-name="Path 3" d="M367.922,128.1a2.612,2.612,0,0,0-1.932-.76,2.564,2.564,0,0,0-1.925.782,2.679,2.679,0,0,0-.765,1.954v.5a9.971,9.971,0,0,0-7.45-3.24,10.247,10.247,0,0,0-5.609,1.589,11.377,11.377,0,0,0-4,4.4,14.862,14.862,0,0,0,0,12.928,11.251,11.251,0,0,0,4.04,4.4,10.653,10.653,0,0,0,5.747,1.594,8.351,8.351,0,0,0,3.055-.56,10.275,10.275,0,0,0,2.491-1.371,8.061,8.061,0,0,0,1.657-1.639c.022-.035.045-.068.068-.1v2.188a4.583,4.583,0,0,1-1.617,3.725,7.68,7.68,0,0,1-4.981,1.348,8.474,8.474,0,0,1-2.177-.337c-.823-.229-1.576-.474-2.268-.742s-1.182-.452-1.479-.537a2.242,2.242,0,0,0-1.885.109,2.816,2.816,0,0,0-1.3,1.776,2.2,2.2,0,0,0,.2,1.863,3.845,3.845,0,0,0,1.868,1.457,14.27,14.27,0,0,0,1.971.583c.868.21,1.782.389,2.742.542a15.73,15.73,0,0,0,2.331.224,16.208,16.208,0,0,0,5.878-1.057A9.492,9.492,0,0,0,367,156.307a10.531,10.531,0,0,0,1.685-6.26V130.075a2.672,2.672,0,0,0-.766-1.976m-5.25,15.533a6.666,6.666,0,0,1-2.376,2.691,6.482,6.482,0,0,1-3.593.988,6.4,6.4,0,0,1-3.548-.988,6.658,6.658,0,0,1-2.376-2.691,8.382,8.382,0,0,1-.851-3.816,8.469,8.469,0,0,1,.851-3.862,6.712,6.712,0,0,1,2.376-2.7,6.392,6.392,0,0,1,3.548-.982,6.479,6.479,0,0,1,3.593.982,6.713,6.713,0,0,1,2.376,2.7,8.473,8.473,0,0,1,.851,3.862,8.382,8.382,0,0,1-.851,3.816" transform="translate(-282.87 -127.334)"/>
      <path id="Path_4" data-name="Path 4" d="M332.232,129.893a2.667,2.667,0,0,1-.761,2.136,2.555,2.555,0,0,1-1.661.649,3.885,3.885,0,0,1-1.548-.313,3.755,3.755,0,0,0-1.586-.324,3.968,3.968,0,0,0-1.637.387,4.523,4.523,0,0,0-1.536,1.187,6.17,6.17,0,0,0-1.112,2,8.249,8.249,0,0,0-.437,2.81v10.631a2.64,2.64,0,0,1-.761,1.949,2.552,2.552,0,0,1-1.924.786,2.6,2.6,0,0,1-1.936-.786,2.687,2.687,0,0,1-.761-1.949V130.516a2.724,2.724,0,0,1,.761-1.948,2.6,2.6,0,0,1,1.936-.786,2.549,2.549,0,0,1,1.924.786,2.675,2.675,0,0,1,.761,1.948v.625a7.127,7.127,0,0,1,.974-1.312,7.362,7.362,0,0,1,1.773-1.4,7.778,7.778,0,0,1,2.111-.825,9.061,9.061,0,0,1,2.236-.275,3.453,3.453,0,0,1,2.274.761,2.289,2.289,0,0,1,.911,1.8" transform="translate(-273.215 -127.331)"/>
    </g>
    <g id="Group_2" data-name="Group 2" transform="translate(43.426 94.345)">
      <path id="Path_5" data-name="Path 5" d="M73.773,143.818l-.467.323c.053,0,.095.019.092.043,0,.048-.067.038-.124.172a.235.235,0,0,1-.2.139c0,.056-.1.066-.1.066-.012.094-.136.1-.136.1-.028.1-.145.089-.145.089a.2.2,0,0,1-.275.065l-.032-.037-.456.315a.3.3,0,0,1-.416-.077l-.849-1.228a.3.3,0,0,1,.076-.416l.735-.507-1.207-1.932a21.81,21.81,0,0,1,.236,2.424h-.223l.841,2.711-.268.107a1.038,1.038,0,0,1-.124.479,7.964,7.964,0,0,0-.392,2.191.776.776,0,0,0-.021.149.952.952,0,0,0,.047.392.042.042,0,0,0,.008.016c.057.127.321.264.917.341.66.085.448.473.448.473l-1.931.179a.837.837,0,0,1,.043-.983.575.575,0,0,0,.044-.375c-.013-.065-.034-.124-.047-.185a4.222,4.222,0,0,1-.032-1.972.723.723,0,0,0,.063-.316l-.268.122-.3-.617-.075.642-.3-.02a1.1,1.1,0,0,1-.609.474,7.923,7.923,0,0,0-1.826,1.274.715.715,0,0,0-.121.091.927.927,0,0,0-.243.31.1.1,0,0,0-.007.016c-.05.13.039.415.408.89.407.527-.018.652-.018.652l-1.492-1.239a.838.838,0,0,1,.726-.665.583.583,0,0,0,.3-.233c.036-.055.064-.11.1-.164a4.224,4.224,0,0,1,1.372-1.416.726.726,0,0,0,.137-.07l-.264-.018-.079-3.23h-.2a17.9,17.9,0,0,1,.075-2.424c-.091.134-.256.361-.405.564l-.318.431c-.087.124-.851.918-1.232,1.308.11.092.211.185.216.222a1.132,1.132,0,0,1-.036.271.042.042,0,0,1-.064-.03.29.29,0,0,1,0,.076.933.933,0,0,0-.027.164c0,.038-.014.1-.039.1s-.053-.03-.079-.07a.216.216,0,0,1-.2.051.254.254,0,0,1-.279-.02c-.18.041-.224-.153-.224-.153h0a.142.142,0,0,1-.1-.148.766.766,0,0,1,.014-.082.341.341,0,0,1,.039-.095.12.12,0,0,0,.024-.037.639.639,0,0,0,.042-.091c.043-.087-.061-.185-.061-.185-.389-.4-1.118-1.157-1.2-1.278-.11-.158-.466-.956-.839-1.109a14.587,14.587,0,0,0,.523,2.494s.037.07-.216.041a9.476,9.476,0,0,0,1.1,2.064,3.58,3.58,0,0,1-1.251.725,1.058,1.058,0,0,1-.126.508,7.987,7.987,0,0,0-.391,2.191.84.84,0,0,0-.021.15.931.931,0,0,0,.047.392.043.043,0,0,0,.007.016c.057.126.322.265.918.341.661.085.448.474.448.474l-1.931.178a.838.838,0,0,1,.044-.983.574.574,0,0,0,.044-.374c-.013-.066-.033-.124-.048-.185a4.231,4.231,0,0,1-.032-1.972.571.571,0,0,0-.038-.6.927.927,0,0,1-.3.085,4,4,0,0,1-.459-.013,1.22,1.22,0,0,1-.769.808,7.923,7.923,0,0,0-1.826,1.274.688.688,0,0,0-.121.091.935.935,0,0,0-.243.31.094.094,0,0,0-.007.016c-.05.13.04.415.408.89.407.527-.018.652-.018.652l-1.492-1.239a.837.837,0,0,1,.726-.665.583.583,0,0,0,.3-.233c.036-.055.064-.11.1-.164a4.223,4.223,0,0,1,1.372-1.416.562.562,0,0,0,.4-.512.768.768,0,0,1-.625-.338c-.178-.285-.692-.458-.815-.532a12.986,12.986,0,0,0,1.063-1.56,3.117,3.117,0,0,1-1.121.387c-.778.078-.74-3.21-.943-3.832s.56-.452.56-.452l.016-.389c.016-.389.358-.3.592-.557a.793.793,0,0,1,.107-.1,1.479,1.479,0,0,1,.8-.32c.076-.235.225-.381.37-.352a.265.265,0,0,1,.186.212.738.738,0,0,1,.023.2l.072.023.208.072c.066-.08.132-.16.193-.245a.722.722,0,0,0,.135-.794,4.424,4.424,0,0,1-.747-1.475.9.9,0,0,1-.248.034.913.913,0,1,1,.71-1.487,2.155,2.155,0,0,1,2.017-.479v0h.006a1.846,1.846,0,0,1,1.191.9l.009.017c0,.012.01.022.014.036s0,.013.007.019a.307.307,0,0,1,.015.047c.009.028.018.057.026.082.17.469.471.085.491.059a.483.483,0,0,1-.5.293.741.741,0,0,1-.142.245,1.258,1.258,0,0,1,.175,1.015c-.213.466-.494,1.1-.892,1.067s-1.105.113-1.105.759c0,0,.919.075,1.195.4.362.424.963,1.943,1.328,2.207a6.124,6.124,0,0,1,.925,1.316,6.123,6.123,0,0,1,.926-1.316c.365-.264.728-1.714,1.377-2.373a1.838,1.838,0,0,1,.94-.293c.136-.273.251-.639.048-.875a5.653,5.653,0,0,1-.759-.918,3.462,3.462,0,0,1-1.022.266c-.061-.073.091-.181.826-.644A1.413,1.413,0,0,1,67.364,135c1.144-1.468,3.229-.824,3.44.2a.684.684,0,0,1-.1.452,1.26,1.26,0,0,1,.335.974c-.137.493-.315,1.161-.711,1.194a.7.7,0,0,0-.688.9.051.051,0,0,1,0,.026c.463.13.821.372.882.777.017.112.039.214.052.334a1.945,1.945,0,0,0,.19.618l1.152,2.088.676-.468a.3.3,0,0,1,.415.076l.85,1.228a.292.292,0,0,1-.076.41" transform="translate(-56.67 -134.112)"/>
    </g>
    <g id="Group_3" data-name="Group 3" transform="translate(35.455 86.467)">
      <path id="Path_6" data-name="Path 6" d="M76.547,134.672c-.095-.426-.211-.853-.343-1.268,0-.007-.006-.007-.006-.012-.133-.41-.294-.819-.465-1.218l-.089-.194a16.309,16.309,0,0,0-28.8-2.192,15.4,15.4,0,0,0-.3,15.707,16.792,16.792,0,0,0,2.364,3.19l11.881,13.133,8.853-9.679,1.423-1.667.017-.016.454-.526,1.335-1.556.21-.249A15.749,15.749,0,0,0,76.74,140.3a15.158,15.158,0,0,0-.193-5.626M60.739,150.186a11.82,11.82,0,1,1,11.8-11.816,11.813,11.813,0,0,1-11.8,11.816" transform="translate(-44.546 -122.131)" fill="#f26522"/>
      <path id="Path_7" data-name="Path 7" d="M134.405,197.127l-.353.177a36.855,36.855,0,0,1-9.784,3.53l-.357.074-.538-3.061.341-.062a33.669,33.669,0,0,0,8.689-3.128l.283-.148Z" transform="translate(-71.543 -146.919)" fill="#f26522"/>
      <path id="Path_8" data-name="Path 8" d="M115.683,203.126l-.357.049a37.586,37.586,0,0,1-5.294.378,36.838,36.838,0,0,1-5.123-.358l-.381-.048.727-3.046.316.049a34.027,34.027,0,0,0,9.243-.028l.336-.045Z" transform="translate(-65.089 -148.826)" fill="#f26522"/>
      <path id="Path_9" data-name="Path 9" d="M160.967,168.494l-.123.37a31.67,31.67,0,0,1-4.86,9.337l-.2.266-2.627-1.744.234-.3a28.646,28.646,0,0,0,4.342-8.283l.091-.3Z" transform="translate(-81.745 -137.786)" fill="#f26522"/>
      <path id="Path_10" data-name="Path 10" d="M150.132,185.161l-.259.3a34.726,34.726,0,0,1-7.974,6.788l-.287.18-1.715-2.6.3-.2a31.623,31.623,0,0,0,7.108-6l.2-.233Z" transform="translate(-77.202 -143.116)" fill="#f26522"/>
      <path id="Path_11" data-name="Path 11" d="M97.115,197.873l-.723,3.025-.336-.066a34.765,34.765,0,0,1-9.806-3.66l-.348-.193,1.867-2.545.266.156a32.344,32.344,0,0,0,8.73,3.214Z" transform="translate(-58.71 -146.894)" fill="#f26522"/>
      <path id="Path_12" data-name="Path 12" d="M81.167,189.561,79.307,192.1l-.279-.18a32.089,32.089,0,0,1-7.757-7.129l-.238-.313,2.725-1.679.193.254a28.611,28.611,0,0,0,6.908,6.306Z" transform="translate(-53.618 -142.908)" fill="#f26522"/>
    </g>
    <g id="Group_4" data-name="Group 4" transform="translate(18 85.161)">
      <path id="Path_13" data-name="Path 13" d="M33.665,129.867A2.665,2.665,0,0,1,32.9,132a2.56,2.56,0,0,1-1.662.65,3.9,3.9,0,0,1-1.549-.313,3.743,3.743,0,0,0-1.586-.325,3.965,3.965,0,0,0-1.637.387,4.519,4.519,0,0,0-1.537,1.187,6.167,6.167,0,0,0-1.112,2,8.245,8.245,0,0,0-.437,2.81v10.631a2.635,2.635,0,0,1-.761,1.948,2.55,2.55,0,0,1-1.924.787,2.6,2.6,0,0,1-1.936-.787A2.682,2.682,0,0,1,18,149.028V130.491a2.727,2.727,0,0,1,.762-1.95,2.6,2.6,0,0,1,1.936-.786,2.551,2.551,0,0,1,1.924.786,2.678,2.678,0,0,1,.761,1.95v.624a7.121,7.121,0,0,1,.974-1.311,7.389,7.389,0,0,1,1.774-1.4,7.8,7.8,0,0,1,2.111-.824,9.086,9.086,0,0,1,2.236-.275,3.451,3.451,0,0,1,2.273.761,2.287,2.287,0,0,1,.912,1.8" transform="translate(-18 -122.597)"/>
      <path id="Path_14" data-name="Path 14" d="M117.781,127.992a2.578,2.578,0,0,1,1.93.786,2.684,2.684,0,0,1,.763,1.952v11.4a10.494,10.494,0,0,1-2.648,7.542q-2.65,2.783-7.63,2.783t-7.608-2.783a10.544,10.544,0,0,1-2.626-7.542v-11.4a2.684,2.684,0,0,1,.763-1.952,2.764,2.764,0,0,1,3.86,0,2.686,2.686,0,0,1,.763,1.952v11.4a5.863,5.863,0,0,0,1.212,4.063,4.685,4.685,0,0,0,3.636,1.326,4.749,4.749,0,0,0,3.681-1.326,5.859,5.859,0,0,0,1.212-4.063v-11.4a2.684,2.684,0,0,1,.763-1.952,2.578,2.578,0,0,1,1.93-.786" transform="translate(-46.071 -122.832)"/>
      <path id="Path_15" data-name="Path 15" d="M154.32,144.827a2.428,2.428,0,0,1-.862,3.684,5.677,5.677,0,0,1-2.935.8,16.1,16.1,0,0,1-2.086-.151,5.913,5.913,0,0,1-2.161-.761,4.8,4.8,0,0,1-1.673-1.861,7.4,7.4,0,0,1-.675-3.46V130.685h-2.061a2.436,2.436,0,0,1-1.8-.712,2.467,2.467,0,0,1-.725-1.8,2.318,2.318,0,0,1,.725-1.723,2.481,2.481,0,0,1,1.8-.7h2.061V122.88a2.689,2.689,0,0,1,2.736-2.736,2.524,2.524,0,0,1,1.911.786,2.761,2.761,0,0,1,.737,1.95v2.872H152.5a2.435,2.435,0,0,1,2.51,2.51,2.359,2.359,0,0,1-.712,1.737,2.491,2.491,0,0,1-1.8.687h-3.186v12.167a1.99,1.99,0,0,0,.25,1.037,1.382,1.382,0,0,0,.675.575,2.216,2.216,0,0,0,.912.187,2.513,2.513,0,0,0,.986-.2,2.48,2.48,0,0,1,1.037-.212,1.534,1.534,0,0,1,1.149.587" transform="translate(-59.558 -120.144)"/>
      <path id="Path_16" data-name="Path 16" d="M193.068,140.947a2.254,2.254,0,0,0,.846-1.748,11.454,11.454,0,0,0-.925-4.569,12.487,12.487,0,0,0-2.485-3.8,11.88,11.88,0,0,0-3.609-2.577,10.149,10.149,0,0,0-4.331-.947,11.1,11.1,0,0,0-5.609,1.525,11.611,11.611,0,0,0-4.284,4.381,13.513,13.513,0,0,0-1.64,6.884,12.671,12.671,0,0,0,1.5,6.2,11,11,0,0,0,4.307,4.336,13.189,13.189,0,0,0,6.621,1.581,12.737,12.737,0,0,0,4.347-.737,10.886,10.886,0,0,0,3.284-1.719,2.807,2.807,0,0,0,1.251-2.2,2.261,2.261,0,0,0-2.284-2.249,3.508,3.508,0,0,0-1.525.4c-.325.188-.7.4-1.1.651a5.952,5.952,0,0,1-1.594.663,10.8,10.8,0,0,1-2.65.262,6.853,6.853,0,0,1-5.981-3.438,6.755,6.755,0,0,1-.84-2.222h14.812a2.875,2.875,0,0,0,1.89-.676M176.679,136.1a6.114,6.114,0,0,1,1.348-2.289,4.943,4.943,0,0,1,2.023-1.212,8.7,8.7,0,0,1,2.513-.36,5.95,5.95,0,0,1,2.622.612,6.145,6.145,0,0,1,2.074,1.633,4.143,4.143,0,0,1,.908,2.337v.315h-11.75a5.706,5.706,0,0,1,.263-1.036" transform="translate(-70.41 -122.597)"/>
      <path id="Path_17" data-name="Path 17" d="M213.064,148.044a2.494,2.494,0,0,1-.4-1.615,2.17,2.17,0,0,1,1.165-1.707,2.454,2.454,0,0,1,1.526-.381,2.548,2.548,0,0,1,1.571.83,10.5,10.5,0,0,0,2.739,2.019,7.976,7.976,0,0,0,3.589.719,11.468,11.468,0,0,0,1.482-.2,2.821,2.821,0,0,0,1.413-.717,2.252,2.252,0,0,0,.607-1.729,1.977,1.977,0,0,0-.674-1.572,5.683,5.683,0,0,0-1.771-.986q-1.1-.4-2.447-.764-1.391-.4-2.85-.9a11.873,11.873,0,0,1-2.671-1.278,6.145,6.145,0,0,1-1.975-2.087,6.392,6.392,0,0,1-.763-3.276,5.917,5.917,0,0,1,1.257-3.815,8.2,8.2,0,0,1,3.253-2.424,10.568,10.568,0,0,1,4.2-.853,13.567,13.567,0,0,1,2.917.337,11.407,11.407,0,0,1,2.918,1.078,7.2,7.2,0,0,1,2.334,1.952,3.187,3.187,0,0,1,.583,1.617A1.929,1.929,0,0,1,230.21,134a2.173,2.173,0,0,1-1.571.471,2.372,2.372,0,0,1-1.481-.606,5.306,5.306,0,0,0-2.042-1.571,7,7,0,0,0-2.94-.585,7.546,7.546,0,0,0-1.46.157,2.88,2.88,0,0,0-1.368.673,2.453,2.453,0,0,0,.089,3.276,5.128,5.128,0,0,0,1.817.987q1.144.383,2.447.742,1.346.357,2.738.853a10.917,10.917,0,0,1,2.56,1.3,6.161,6.161,0,0,1,1.884,2.087,6.586,6.586,0,0,1,.719,3.253,5.9,5.9,0,0,1-1.347,3.9,8.527,8.527,0,0,1-3.367,2.447,10.772,10.772,0,0,1-4.129.831,16.094,16.094,0,0,1-5.3-.92,9.149,9.149,0,0,1-4.4-3.253" transform="translate(-84.667 -122.598)"/>
    </g>
    <g id="Group_5" data-name="Group 5" transform="translate(143.961 17.999)">
      <path id="Path_18" data-name="Path 18" d="M245.507,58.748,236.56,38.091h-2.109a3.052,3.052,0,0,0-1.174-1.806c-.452-.279-2.061,1.244-3.747.808l-.016-.008c-1.478-.559-7.027-5.246-7.343-5.479a3.008,3.008,0,0,1-.221-.226,12.092,12.092,0,0,1-1.761-3.033,3.3,3.3,0,0,0-.956-1.066c-.23-.144-.681-.386-.854-.473a1.325,1.325,0,0,1,1.358-1.428c.763-.066,1.109-1.355,1.371-2.3a1.762,1.762,0,0,0-.206-1.2,2.749,2.749,0,0,1-.258-1.03v-.1a1.2,1.2,0,0,0-.058-.7c-.608-1.572-3.5-2.537-5.631-1.01a.3.3,0,0,0-.139-.205.342.342,0,0,0-.439.049c-.979-1.108-3.029-1.448-3.689.628-.837,2.644,5.166,9.452-.038,8.3.185.078,2.82,1.166,3.025-1.3.185-2.22-1.4-5.29-.554-5.8a.182.182,0,0,0-.016.082.331.331,0,0,0,.149.292.328.328,0,0,0,.226.057,3,3,0,0,0,.234,1.662l.352.681c.02.033.049.09.069.123a8.957,8.957,0,0,0,1.42,1.7c.729.644-.275,1.424-1.088,3.111a1.136,1.136,0,0,0-.028-.111.528.528,0,0,0-.37-.423c-.3-.061-.6.234-.748.706a2.934,2.934,0,0,0-1.621.644,1.442,1.442,0,0,0-.214.2c-.467.525-1.157.337-1.19,1.12l-.033.78a1.7,1.7,0,0,0-.686,1.675c.037.575,0,0,.308,3,0,0-.323-.062-.308.472,0,.152.267,4.674,4.178,3.472-.416,1.19-.931,3.394-.049,5a2.116,2.116,0,0,0,.439,4.171h5.849l-9.436,9.292a2.088,2.088,0,0,0,2.927,2.979l7.938-7.812-.764,2.267.343.139c-.068.251-.124.334-.315.421,0,0-1.7.915-1.155,2.47l5.546.922.534,1.125a1.83,1.83,0,0,0,2.844.619l.48-.4,3.514.021s.853-1.1-1.232-1.556c-.124-.025-.242-.053-.353-.082l7.651-6.407,3.156,7.281a2.078,2.078,0,0,0,1.921,1.252,2.149,2.149,0,0,0,.834-.168,2.1,2.1,0,0,0,1.081-2.743m-11.9-21.22a1.86,1.86,0,0,1,.386.562h-.484c.061-.27.094-.525.1-.562M220.393,41.1a26.578,26.578,0,0,0-.016-3c.841.821,1.74,1.7,2.352,2.323.193.254.67.6.69.657a.209.209,0,0,0,.037.074c-.931-.049-1.948-.07-3.062-.057m2.1,15.832a.609.609,0,0,1,.031-.482s.268.082.384.123l.235-.828,1.129,2.376a4.119,4.119,0,0,1-1.779-1.189m1.7-8.7-.723-1.554c.415-.041.792-.086,1.133-.132-.226.349-.2,1.275-.41,1.685m2.467,5.169-.895-1.883c.391-.644.9-2.2,1.275-2.85a17.056,17.056,0,0,0-.38,4.733m2.314,2.25a91.32,91.32,0,0,0,2.094-12.107c.013-.584-.821-1.481-4.113-2.024a2.9,2.9,0,0,0-.271-1.08c-.209-.377-1.69.395-2.646-.5l-.013-.009c-.049-.062-.135-.426-.2-.521a62.989,62.989,0,0,1-3.272-5.857c1.1.994,2.525,2.261,2.869,2.565l.107.07c2.138.862,5.495,2.183,5.713,2.376.43.4,1.424-.263,1.6-.337.131-.049.156-.09.262.034a2.086,2.086,0,0,0,.821,4.006h1.883l2.975,6.862Z" transform="translate(-209.572 -17.999)"/>
    </g>
    <g id="Group_6" data-name="Group 6" transform="translate(55.233 40.364)">
      <path id="Path_19" data-name="Path 19" d="M75.034,85.678a2.419,2.419,0,0,1-.4-1.585A2.121,2.121,0,0,1,75.8,82.418a2.476,2.476,0,0,1,1.526-.374,2.573,2.573,0,0,1,1.571.814,10.554,10.554,0,0,0,2.738,1.983,8.1,8.1,0,0,0,3.591.706,12.174,12.174,0,0,0,1.481-.2,2.847,2.847,0,0,0,1.414-.7,2.183,2.183,0,0,0,.606-1.7,1.922,1.922,0,0,0-.673-1.542,5.741,5.741,0,0,0-1.773-.969q-1.1-.4-2.446-.75-1.392-.395-2.85-.882a11.935,11.935,0,0,1-2.67-1.255A6.046,6.046,0,0,1,76.336,75.5a6.179,6.179,0,0,1-.763-3.216,5.734,5.734,0,0,1,1.257-3.744,8.189,8.189,0,0,1,3.254-2.379,10.747,10.747,0,0,1,4.2-.837,13.8,13.8,0,0,1,2.917.331,11.542,11.542,0,0,1,2.917,1.057,7.166,7.166,0,0,1,2.334,1.915,3.1,3.1,0,0,1,.584,1.587,1.88,1.88,0,0,1-.853,1.674,2.2,2.2,0,0,1-1.571.462,2.394,2.394,0,0,1-1.481-.593,5.29,5.29,0,0,0-2.042-1.543,7.129,7.129,0,0,0-2.94-.573,7.672,7.672,0,0,0-1.459.154,2.9,2.9,0,0,0-1.368.661,2.374,2.374,0,0,0,.089,3.217,5.12,5.12,0,0,0,1.818.969q1.144.375,2.446.728,1.346.351,2.738.836a10.927,10.927,0,0,1,2.558,1.278,6.1,6.1,0,0,1,1.886,2.048,6.375,6.375,0,0,1,.717,3.193,5.726,5.726,0,0,1-1.346,3.833,8.506,8.506,0,0,1-3.366,2.4,10.937,10.937,0,0,1-4.129.815,16.35,16.35,0,0,1-5.3-.9,9.123,9.123,0,0,1-4.4-3.192" transform="translate(-74.626 -56.573)" fill="#f26522"/>
      <path id="Path_20" data-name="Path 20" d="M122.752,65.325a16.848,16.848,0,0,1,4.466.528,7.3,7.3,0,0,1,2.962,1.476,2.951,2.951,0,0,1,1.055,2.269,2.828,2.828,0,0,1-.538,1.651,1.8,1.8,0,0,1-1.571.771,3.1,3.1,0,0,1-1.189-.2,3.145,3.145,0,0,1-.83-.507,4.763,4.763,0,0,0-.853-.573,4.146,4.146,0,0,0-1.369-.418,9.1,9.1,0,0,0-1.368-.154,7.344,7.344,0,0,0-3.883.969,6.509,6.509,0,0,0-2.446,2.622,8.192,8.192,0,0,0-.853,3.81,7.916,7.916,0,0,0,.876,3.767,6.754,6.754,0,0,0,2.423,2.62,6.581,6.581,0,0,0,3.569.97,12.07,12.07,0,0,0,1.93-.133,4.831,4.831,0,0,0,1.347-.4,8.179,8.179,0,0,0,1.122-.748,2.327,2.327,0,0,1,1.481-.4,2.244,2.244,0,0,1,1.795.727,2.631,2.631,0,0,1,.629,1.784,2.515,2.515,0,0,1-1.257,2,10.177,10.177,0,0,1-3.3,1.454,16.945,16.945,0,0,1-4.42.55,11.467,11.467,0,0,1-6.15-1.606,10.827,10.827,0,0,1-4.017-4.384,13.493,13.493,0,0,1-1.414-6.212,13.056,13.056,0,0,1,1.5-6.365,11.03,11.03,0,0,1,4.174-4.318,11.894,11.894,0,0,1,6.127-1.564" transform="translate(-87.066 -56.573)" fill="#f26522"/>
      <path id="Path_21" data-name="Path 21" d="M171.347,71V82.492a2.7,2.7,0,0,1-.76,1.953,2.772,2.772,0,0,1-3.862,0,2.7,2.7,0,0,1-.76-1.953V71a9.229,9.229,0,0,0-.36-2.673,3.664,3.664,0,0,0-1.3-1.908,4.369,4.369,0,0,0-2.7-.72,5.594,5.594,0,0,0-2.914.72,4.588,4.588,0,0,0-1.816,1.908A5.785,5.785,0,0,0,156.266,71V82.492a2.7,2.7,0,0,1-.76,1.953,2.772,2.772,0,0,1-3.862,0,2.7,2.7,0,0,1-.76-1.953V54.752a2.7,2.7,0,0,1,.76-1.953,2.773,2.773,0,0,1,3.862,0,2.7,2.7,0,0,1,.76,1.953V64.7c.132-.194.286-.389.452-.594a9.823,9.823,0,0,1,1.748-1.634,9.42,9.42,0,0,1,2.291-1.233,7.637,7.637,0,0,1,2.737-.474,7.534,7.534,0,0,1,4.918,1.393,7.042,7.042,0,0,1,2.308,3.7,19.417,19.417,0,0,1,.629,5.14" transform="translate(-100.744 -52.015)" fill="#f26522"/>
      <path id="Path_22" data-name="Path 22" d="M298.7,82.49a2.682,2.682,0,0,1-2.738,2.738,2.519,2.519,0,0,1-1.885-.786,2.691,2.691,0,0,1-.763-1.952V54.751a2.682,2.682,0,0,1,2.738-2.737,2.5,2.5,0,0,1,1.907.785,2.732,2.732,0,0,1,.741,1.951Z" transform="translate(-149.524 -52.014)" fill="#f26522"/>
      <path id="Path_23" data-name="Path 23" d="M217.5,78.926a12.249,12.249,0,0,1-12.188,10.865,12.05,12.05,0,0,1-1.372-.08,12.241,12.241,0,0,1,.016-24.324,2.274,2.274,0,0,1,1.763.567,2.305,2.305,0,0,1-1.286,4.013,7.636,7.636,0,1,0,8.487,8.481,2.3,2.3,0,0,1,4.014-1.28,2.273,2.273,0,0,1,.566,1.757" transform="translate(-115.2 -56.59)" fill="#f26522"/>
      <path id="Path_24" data-name="Path 24" d="M269.677,77.576a13.369,13.369,0,0,1-.074,1.372,12.275,12.275,0,0,1-10.769,10.769,13.29,13.29,0,0,1-1.372.074,12.271,12.271,0,0,1-12.188-10.865,2.266,2.266,0,0,1,.567-1.757,2.3,2.3,0,0,1,4.012,1.28,7.636,7.636,0,1,0,8.482-8.481,2.3,2.3,0,0,1-1.28-4.013,2.244,2.244,0,0,1,1.758-.567,12.242,12.242,0,0,1,10.865,12.189" transform="translate(-133.066 -56.589)" fill="#f26522"/>
    </g>
  </g>
</svg>
