<svg xmlns="http://www.w3.org/2000/svg" width="246.049" height="126.947" viewBox="0 0 246.049 126.947">
  <g id="logo_white" transform="translate(-18 -17.999)">
    <g id="Group_1" data-name="Group 1" transform="translate(175.618 92.076)">
      <path id="Path_1" data-name="Path 1" d="M253.408,161.453a2.5,2.5,0,0,1-2.776-2.775v-.787a2.5,2.5,0,0,1,2.776-2.775h.6a2.506,2.506,0,0,1,2.776,2.775v.787a2.506,2.506,0,0,1-2.776,2.775Z" transform="translate(-250.632 -136.291)" fill="#fff"/>
      <path id="Path_2" data-name="Path 2" d="M293.95,140.192a13.018,13.018,0,0,1-1.687,6.683,12.12,12.12,0,0,1-4.531,4.51,13.306,13.306,0,0,1-12.721,0,12.12,12.12,0,0,1-4.531-4.51,14.069,14.069,0,0,1,0-13.365,12.287,12.287,0,0,1,4.531-4.533,13.142,13.142,0,0,1,12.721,0,12.3,12.3,0,0,1,4.531,4.533,13.017,13.017,0,0,1,1.687,6.682m-5.55,0a8.423,8.423,0,0,0-.947-4.093,7.061,7.061,0,0,0-2.544-2.7,6.925,6.925,0,0,0-7.077,0,7.057,7.057,0,0,0-2.545,2.7,9.221,9.221,0,0,0,0,8.141,7.066,7.066,0,0,0,2.545,2.7,6.925,6.925,0,0,0,7.077,0,7.071,7.071,0,0,0,2.544-2.7,8.32,8.32,0,0,0,.947-4.048" transform="translate(-256.488 -127.333)" fill="#fff"/>
      <path id="Path_3" data-name="Path 3" d="M368.627,128.122a2.692,2.692,0,0,0-1.991-.783,2.642,2.642,0,0,0-1.984.806,2.761,2.761,0,0,0-.789,2.014v.518a10.275,10.275,0,0,0-7.677-3.338,10.56,10.56,0,0,0-5.78,1.637,11.723,11.723,0,0,0-4.121,4.531,15.314,15.314,0,0,0,0,13.322,11.594,11.594,0,0,0,4.163,4.532A10.977,10.977,0,0,0,356.371,153a8.605,8.605,0,0,0,3.149-.577,10.587,10.587,0,0,0,2.566-1.413,8.306,8.306,0,0,0,1.707-1.689c.023-.036.047-.07.07-.1v2.255a4.722,4.722,0,0,1-1.666,3.838,7.914,7.914,0,0,1-5.133,1.389,8.733,8.733,0,0,1-2.243-.348c-.848-.236-1.624-.488-2.337-.765s-1.218-.465-1.524-.554a2.31,2.31,0,0,0-1.943.112,2.9,2.9,0,0,0-1.342,1.83,2.265,2.265,0,0,0,.207,1.919,3.962,3.962,0,0,0,1.925,1.5,14.7,14.7,0,0,0,2.031.6c.894.217,1.836.4,2.825.558a16.209,16.209,0,0,0,2.4.23,16.7,16.7,0,0,0,6.057-1.089,9.781,9.781,0,0,0,4.556-3.515,10.851,10.851,0,0,0,1.737-6.451v-20.58a2.754,2.754,0,0,0-.789-2.036m-5.409,16.006a6.869,6.869,0,0,1-2.449,2.772,6.68,6.68,0,0,1-3.7,1.018,6.59,6.59,0,0,1-3.656-1.018,6.861,6.861,0,0,1-2.449-2.772,8.638,8.638,0,0,1-.877-3.932,8.728,8.728,0,0,1,.877-3.979,6.917,6.917,0,0,1,2.449-2.78,6.587,6.587,0,0,1,3.656-1.012,6.677,6.677,0,0,1,3.7,1.012,6.917,6.917,0,0,1,2.449,2.78,8.732,8.732,0,0,1,.877,3.979,8.638,8.638,0,0,1-.877,3.932" transform="translate(-280.985 -127.334)" fill="#fff"/>
      <path id="Path_4" data-name="Path 4" d="M332.709,129.971a2.749,2.749,0,0,1-.785,2.2,2.633,2.633,0,0,1-1.711.669,4,4,0,0,1-1.6-.323,3.87,3.87,0,0,0-1.634-.334,4.089,4.089,0,0,0-1.686.4,4.661,4.661,0,0,0-1.583,1.223,6.358,6.358,0,0,0-1.146,2.06,8.5,8.5,0,0,0-.451,2.9v10.954a2.72,2.72,0,0,1-.785,2.008,2.63,2.63,0,0,1-1.982.81,2.677,2.677,0,0,1-2-.81,2.769,2.769,0,0,1-.785-2.008v-19.1a2.807,2.807,0,0,1,.785-2.008,2.674,2.674,0,0,1,2-.81,2.626,2.626,0,0,1,1.982.81,2.757,2.757,0,0,1,.785,2.008v.644a7.35,7.35,0,0,1,1-1.352,7.587,7.587,0,0,1,1.827-1.441,8.015,8.015,0,0,1,2.176-.85,9.338,9.338,0,0,1,2.3-.283,3.558,3.558,0,0,1,2.343.785,2.359,2.359,0,0,1,.938,1.855" transform="translate(-271.895 -127.331)" fill="#fff"/>
    </g>
    <g id="Group_2" data-name="Group 2" transform="translate(44.201 96.67)">
      <path id="Path_5" data-name="Path 5" d="M74.294,144.114l-.482.333c.055,0,.1.02.095.045,0,.049-.069.039-.127.178a.242.242,0,0,1-.209.143c0,.058-.1.068-.1.068-.013.1-.14.1-.14.1-.028.1-.149.092-.149.092a.207.207,0,0,1-.283.067l-.033-.038-.47.325a.308.308,0,0,1-.428-.079l-.875-1.265a.309.309,0,0,1,.078-.429l.757-.522-1.243-1.991a22.474,22.474,0,0,1,.243,2.5H70.7l.867,2.794-.276.11a1.069,1.069,0,0,1-.127.494,8.207,8.207,0,0,0-.4,2.258.8.8,0,0,0-.022.154.982.982,0,0,0,.048.4.044.044,0,0,0,.008.017c.058.131.331.272.945.352.68.088.462.488.462.488l-1.99.184a.863.863,0,0,1,.045-1.013.592.592,0,0,0,.045-.386c-.014-.067-.035-.127-.049-.19a4.351,4.351,0,0,1-.033-2.032.745.745,0,0,0,.065-.326l-.276.126-.313-.636-.077.662-.3-.02a1.131,1.131,0,0,1-.627.489,8.164,8.164,0,0,0-1.882,1.312.736.736,0,0,0-.125.094.955.955,0,0,0-.251.32.1.1,0,0,0-.007.017c-.051.133.041.428.42.917.419.543-.018.672-.018.672l-1.537-1.276a.864.864,0,0,1,.748-.686.6.6,0,0,0,.306-.241c.037-.056.066-.114.1-.169a4.352,4.352,0,0,1,1.414-1.459.748.748,0,0,0,.142-.072l-.272-.018-.081-3.329h-.2a18.445,18.445,0,0,1,.077-2.5c-.094.138-.264.372-.417.581l-.327.444c-.089.127-.877.946-1.269,1.348.114.095.217.191.222.229a1.166,1.166,0,0,1-.037.279.043.043,0,0,1-.066-.031.3.3,0,0,1,0,.078.96.96,0,0,0-.028.169c0,.039-.014.1-.041.1s-.055-.031-.081-.072a.222.222,0,0,1-.2.053.262.262,0,0,1-.287-.021c-.186.043-.231-.157-.231-.157h0a.147.147,0,0,1-.1-.152.788.788,0,0,1,.014-.085.351.351,0,0,1,.04-.1.124.124,0,0,0,.024-.039.656.656,0,0,0,.043-.094c.044-.09-.063-.19-.063-.19-.4-.412-1.152-1.192-1.239-1.316-.114-.163-.48-.985-.865-1.142a15.032,15.032,0,0,0,.539,2.57s.038.072-.222.043a9.765,9.765,0,0,0,1.134,2.127,3.689,3.689,0,0,1-1.289.747,1.091,1.091,0,0,1-.129.524,8.23,8.23,0,0,0-.4,2.258.866.866,0,0,0-.022.154.959.959,0,0,0,.049.4.044.044,0,0,0,.007.017c.058.13.331.273.946.352.681.087.461.488.461.488l-1.99.184a.863.863,0,0,1,.045-1.013.591.591,0,0,0,.045-.386c-.014-.068-.034-.127-.049-.191a4.36,4.36,0,0,1-.033-2.032.589.589,0,0,0-.039-.615.955.955,0,0,1-.313.087,4.127,4.127,0,0,1-.473-.014,1.257,1.257,0,0,1-.793.833,8.164,8.164,0,0,0-1.882,1.312.709.709,0,0,0-.125.094.963.963,0,0,0-.251.32.1.1,0,0,0-.007.017c-.051.133.041.428.42.917.419.543-.018.672-.018.672l-1.537-1.276a.862.862,0,0,1,.748-.686.6.6,0,0,0,.306-.241c.037-.056.066-.114.1-.169a4.352,4.352,0,0,1,1.414-1.459.58.58,0,0,0,.415-.528.791.791,0,0,1-.644-.348c-.184-.294-.713-.472-.839-.548a13.382,13.382,0,0,0,1.1-1.608,3.212,3.212,0,0,1-1.155.4c-.8.081-.763-3.308-.972-3.949s.577-.466.577-.466l.016-.4c.016-.4.369-.3.61-.574a.818.818,0,0,1,.11-.1,1.524,1.524,0,0,1,.829-.329c.078-.242.232-.392.381-.363a.274.274,0,0,1,.192.218.761.761,0,0,1,.024.206l.075.024.214.075c.068-.082.136-.165.2-.253a.744.744,0,0,0,.14-.818,4.558,4.558,0,0,1-.77-1.52.93.93,0,0,1-.255.035.941.941,0,1,1,.732-1.532,2.221,2.221,0,0,1,2.079-.494v0H62.3a1.9,1.9,0,0,1,1.228.929l.009.018c0,.013.01.023.015.037s0,.014.007.02a.316.316,0,0,1,.016.049c.009.029.018.058.027.085.175.483.486.087.505.061a.5.5,0,0,1-.514.3.763.763,0,0,1-.146.253,1.3,1.3,0,0,1,.18,1.045c-.22.48-.51,1.129-.919,1.1s-1.139.117-1.139.783c0,0,.947.077,1.231.409.373.437.993,2,1.369,2.274a6.31,6.31,0,0,1,.953,1.356,6.309,6.309,0,0,1,.954-1.356c.376-.272.75-1.766,1.419-2.445a1.893,1.893,0,0,1,.968-.3c.14-.281.258-.659.049-.9a5.826,5.826,0,0,1-.783-.946,3.567,3.567,0,0,1-1.054.274c-.063-.075.093-.186.851-.664a1.456,1.456,0,0,1,.168-1.539c1.179-1.513,3.327-.849,3.545.209a.7.7,0,0,1-.108.466,1.3,1.3,0,0,1,.345,1c-.142.508-.325,1.2-.733,1.23a.722.722,0,0,0-.709.93.052.052,0,0,1,0,.027c.477.133.846.383.909.8.018.115.041.22.054.344a2,2,0,0,0,.2.637l1.187,2.151.7-.482a.306.306,0,0,1,.428.079l.876,1.266a.3.3,0,0,1-.079.422" transform="translate(-56.67 -134.112)" fill="#fff"/>
    </g>
    <g id="Group_3" data-name="Group 3" transform="translate(35.986 88.553)">
      <path id="Path_6" data-name="Path 6" d="M77.521,135.054c-.1-.439-.217-.879-.354-1.306,0-.007-.006-.007-.006-.013-.137-.422-.3-.844-.479-1.255l-.091-.2a16.806,16.806,0,0,0-29.673-2.259,15.868,15.868,0,0,0-.308,16.186,17.3,17.3,0,0,0,2.436,3.287l12.243,13.533,9.122-9.973,1.466-1.718.018-.016.468-.542,1.375-1.6.216-.257a16.228,16.228,0,0,0,3.766-8.067,15.62,15.62,0,0,0-.2-5.8M61.233,151.04A12.18,12.18,0,1,1,73.39,138.865,12.173,12.173,0,0,1,61.233,151.04" transform="translate(-44.546 -122.131)" fill="#f26522"/>
      <path id="Path_7" data-name="Path 7" d="M134.741,197.206l-.364.182a37.978,37.978,0,0,1-10.082,3.637l-.368.076-.554-3.155.351-.064a34.694,34.694,0,0,0,8.954-3.224l.291-.152Z" transform="translate(-69.965 -145.469)" fill="#f26522"/>
      <path id="Path_8" data-name="Path 8" d="M116.023,203.218l-.368.05a38.731,38.731,0,0,1-5.456.39,37.959,37.959,0,0,1-5.279-.369l-.393-.049.749-3.138.326.05a35.063,35.063,0,0,0,9.524-.029l.346-.046Z" transform="translate(-63.888 -147.265)" fill="#f26522"/>
      <path id="Path_9" data-name="Path 9" d="M161.2,168.514l-.127.381a32.635,32.635,0,0,1-5.008,9.622l-.2.274-2.707-1.8.241-.308a29.518,29.518,0,0,0,4.475-8.536l.093-.308Z" transform="translate(-79.57 -136.871)" fill="#f26522"/>
      <path id="Path_10" data-name="Path 10" d="M150.444,185.214l-.267.308a35.783,35.783,0,0,1-8.217,6.995l-.3.186-1.768-2.676.313-.2a32.586,32.586,0,0,0,7.325-6.179l.207-.24Z" transform="translate(-75.293 -141.889)" fill="#f26522"/>
      <path id="Path_11" data-name="Path 11" d="M97.456,197.978l-.745,3.117-.346-.068a35.823,35.823,0,0,1-10.1-3.772l-.359-.2,1.924-2.622.274.161a33.329,33.329,0,0,0,9,3.312Z" transform="translate(-57.882 -145.446)" fill="#f26522"/>
      <path id="Path_12" data-name="Path 12" d="M81.475,189.767l-1.916,2.613-.287-.185a33.066,33.066,0,0,1-7.994-7.347l-.245-.323,2.808-1.73.2.262a29.482,29.482,0,0,0,7.118,6.5Z" transform="translate(-53.087 -141.693)" fill="#f26522"/>
    </g>
    <g id="Group_4" data-name="Group 4" transform="translate(18 87.206)">
      <path id="Path_13" data-name="Path 13" d="M34.142,129.945a2.746,2.746,0,0,1-.785,2.2,2.638,2.638,0,0,1-1.712.669,4.018,4.018,0,0,1-1.6-.323,3.857,3.857,0,0,0-1.634-.335,4.086,4.086,0,0,0-1.686.4,4.657,4.657,0,0,0-1.583,1.223A6.356,6.356,0,0,0,24,135.84a8.5,8.5,0,0,0-.451,2.9V149.69a2.716,2.716,0,0,1-.785,2.008,2.627,2.627,0,0,1-1.982.811,2.676,2.676,0,0,1-2-.811A2.764,2.764,0,0,1,18,149.69v-19.1a2.81,2.81,0,0,1,.785-2.009,2.677,2.677,0,0,1,2-.81,2.629,2.629,0,0,1,1.982.81,2.76,2.76,0,0,1,.785,2.009v.643a7.337,7.337,0,0,1,1-1.351,7.613,7.613,0,0,1,1.828-1.442,8.036,8.036,0,0,1,2.176-.849,9.363,9.363,0,0,1,2.3-.283,3.556,3.556,0,0,1,2.342.785,2.357,2.357,0,0,1,.94,1.855" transform="translate(-18 -122.453)" fill="#fff"/>
      <path id="Path_14" data-name="Path 14" d="M118.324,127.992a2.657,2.657,0,0,1,1.989.81,2.766,2.766,0,0,1,.787,2.011V142.56a10.813,10.813,0,0,1-2.728,7.771q-2.731,2.868-7.863,2.867t-7.84-2.867a10.866,10.866,0,0,1-2.706-7.771V130.813a2.766,2.766,0,0,1,.787-2.011,2.848,2.848,0,0,1,3.978,0,2.768,2.768,0,0,1,.786,2.011V142.56a6.041,6.041,0,0,0,1.249,4.187,4.828,4.828,0,0,0,3.747,1.366,4.893,4.893,0,0,0,3.793-1.366,6.038,6.038,0,0,0,1.249-4.187V130.813a2.766,2.766,0,0,1,.786-2.011,2.657,2.657,0,0,1,1.989-.81" transform="translate(-44.429 -122.675)" fill="#fff"/>
      <path id="Path_15" data-name="Path 15" d="M154.776,145.579a2.5,2.5,0,0,1-.888,3.8,5.849,5.849,0,0,1-3.025.825,16.588,16.588,0,0,1-2.15-.155,6.092,6.092,0,0,1-2.227-.785,4.942,4.942,0,0,1-1.724-1.918,7.622,7.622,0,0,1-.7-3.566v-12.77h-2.123a2.51,2.51,0,0,1-1.854-.734,2.542,2.542,0,0,1-.747-1.854,2.389,2.389,0,0,1,.747-1.776,2.556,2.556,0,0,1,1.854-.72h2.123v-2.96a2.77,2.77,0,0,1,2.819-2.819,2.6,2.6,0,0,1,1.97.81,2.845,2.845,0,0,1,.76,2.009v2.96H152.9a2.509,2.509,0,0,1,2.587,2.587,2.431,2.431,0,0,1-.734,1.79,2.567,2.567,0,0,1-1.853.708h-3.283v12.537a2.05,2.05,0,0,0,.257,1.068,1.424,1.424,0,0,0,.7.592,2.284,2.284,0,0,0,.94.192,2.59,2.59,0,0,0,1.016-.206,2.556,2.556,0,0,1,1.068-.218,1.581,1.581,0,0,1,1.184.605" transform="translate(-57.128 -120.144)" fill="#fff"/>
      <path id="Path_16" data-name="Path 16" d="M193.739,141.363a2.323,2.323,0,0,0,.871-1.8,11.8,11.8,0,0,0-.953-4.708,12.867,12.867,0,0,0-2.56-3.914,12.242,12.242,0,0,0-3.719-2.655,10.458,10.458,0,0,0-4.463-.976,11.437,11.437,0,0,0-5.78,1.571,11.965,11.965,0,0,0-4.415,4.514,13.924,13.924,0,0,0-1.69,7.094,13.057,13.057,0,0,0,1.548,6.388,11.335,11.335,0,0,0,4.439,4.468,13.591,13.591,0,0,0,6.822,1.63,13.125,13.125,0,0,0,4.48-.76,11.218,11.218,0,0,0,3.384-1.771,2.892,2.892,0,0,0,1.289-2.266,2.33,2.33,0,0,0-2.354-2.318,3.614,3.614,0,0,0-1.572.411c-.335.194-.724.411-1.136.671a6.133,6.133,0,0,1-1.642.683,11.133,11.133,0,0,1-2.731.27,7.061,7.061,0,0,1-6.163-3.543,6.96,6.96,0,0,1-.865-2.29h15.264a2.962,2.962,0,0,0,1.947-.7m-16.888-4.992a6.3,6.3,0,0,1,1.389-2.359,5.094,5.094,0,0,1,2.084-1.249,8.963,8.963,0,0,1,2.59-.371,6.131,6.131,0,0,1,2.7.631,6.332,6.332,0,0,1,2.137,1.682,4.27,4.27,0,0,1,.936,2.409v.325H176.58a5.879,5.879,0,0,1,.271-1.067" transform="translate(-67.346 -122.454)" fill="#fff"/>
      <path id="Path_17" data-name="Path 17" d="M213.077,148.676a2.57,2.57,0,0,1-.416-1.664,2.236,2.236,0,0,1,1.2-1.759,2.528,2.528,0,0,1,1.573-.392,2.626,2.626,0,0,1,1.619.856,10.822,10.822,0,0,0,2.823,2.081,8.219,8.219,0,0,0,3.7.741,11.812,11.812,0,0,0,1.527-.209,2.906,2.906,0,0,0,1.456-.739,2.32,2.32,0,0,0,.625-1.781,2.037,2.037,0,0,0-.694-1.62,5.857,5.857,0,0,0-1.825-1.016q-1.135-.417-2.522-.787-1.433-.415-2.936-.925a12.235,12.235,0,0,1-2.753-1.317,6.332,6.332,0,0,1-2.035-2.15,6.587,6.587,0,0,1-.786-3.376,6.1,6.1,0,0,1,1.295-3.931,8.447,8.447,0,0,1,3.352-2.5,10.89,10.89,0,0,1,4.325-.879,13.981,13.981,0,0,1,3.006.347,11.754,11.754,0,0,1,3.007,1.11,7.417,7.417,0,0,1,2.405,2.012,3.284,3.284,0,0,1,.6,1.666,1.987,1.987,0,0,1-.879,1.758,2.239,2.239,0,0,1-1.619.485,2.445,2.445,0,0,1-1.526-.624,5.468,5.468,0,0,0-2.1-1.619,7.208,7.208,0,0,0-3.029-.6,7.777,7.777,0,0,0-1.5.162,2.968,2.968,0,0,0-1.41.693,2.528,2.528,0,0,0,.092,3.376,5.283,5.283,0,0,0,1.873,1.017q1.179.394,2.521.764,1.387.368,2.821.879a11.249,11.249,0,0,1,2.638,1.341,6.348,6.348,0,0,1,1.942,2.151,6.787,6.787,0,0,1,.741,3.352,6.079,6.079,0,0,1-1.388,4.024,8.787,8.787,0,0,1-3.47,2.521,11.1,11.1,0,0,1-4.255.856,16.584,16.584,0,0,1-5.457-.948,9.428,9.428,0,0,1-4.533-3.352" transform="translate(-80.769 -122.454)" fill="#fff"/>
    </g>
    <g id="Group_5" data-name="Group 5" transform="translate(147.798 17.999)">
      <path id="Path_18" data-name="Path 18" d="M246.6,59.989,237.382,38.7h-2.174A3.145,3.145,0,0,0,234,36.841c-.465-.288-2.123,1.282-3.861.833l-.016-.008c-1.523-.576-7.241-5.406-7.567-5.646a3.1,3.1,0,0,1-.228-.233,12.461,12.461,0,0,1-1.815-3.125,3.4,3.4,0,0,0-.985-1.1c-.237-.148-.7-.4-.88-.487a1.365,1.365,0,0,1,1.4-1.472c.786-.068,1.142-1.4,1.413-2.372a1.816,1.816,0,0,0-.212-1.24,2.833,2.833,0,0,1-.266-1.061v-.1a1.233,1.233,0,0,0-.06-.719c-.626-1.62-3.607-2.614-5.8-1.041a.312.312,0,0,0-.144-.211.352.352,0,0,0-.453.05c-1.009-1.142-3.121-1.492-3.8.647-.863,2.724,5.323,9.74-.039,8.556.19.08,2.906,1.2,3.117-1.337.19-2.287-1.447-5.451-.571-5.976a.187.187,0,0,0-.016.085.341.341,0,0,0,.153.3.338.338,0,0,0,.232.059,3.094,3.094,0,0,0,.241,1.713l.363.7c.021.034.05.093.071.127a9.23,9.23,0,0,0,1.463,1.751c.751.664-.284,1.468-1.121,3.206a1.17,1.17,0,0,0-.029-.115.544.544,0,0,0-.381-.436c-.3-.063-.613.241-.77.728a3.023,3.023,0,0,0-1.67.664,1.486,1.486,0,0,0-.221.207c-.482.541-1.192.347-1.226,1.155l-.034.8a1.748,1.748,0,0,0-.707,1.726c.039.592,0,0,.317,3.088,0,0-.333-.064-.317.486,0,.157.275,4.817,4.305,3.577-.428,1.226-.959,3.5-.05,5.155a2.181,2.181,0,0,0,.453,4.3h6.027l-9.723,9.575a2.152,2.152,0,0,0,3.016,3.07l8.179-8.05L221,57.009l.353.143c-.07.259-.127.344-.325.434,0,0-1.748.942-1.19,2.546l5.715.951.55,1.159a1.886,1.886,0,0,0,2.93.638l.495-.415,3.621.022s.879-1.138-1.269-1.6c-.127-.026-.249-.055-.364-.085l7.884-6.6,3.252,7.5a2.141,2.141,0,0,0,1.98,1.29,2.214,2.214,0,0,0,.859-.173,2.162,2.162,0,0,0,1.114-2.827M234.336,38.123a1.917,1.917,0,0,1,.4.579h-.5c.063-.278.1-.541.1-.579m-13.614,3.684a27.379,27.379,0,0,0-.017-3.088c.867.846,1.793,1.751,2.424,2.394.2.262.69.617.711.677a.216.216,0,0,0,.038.076c-.959-.051-2.008-.072-3.155-.058m2.164,16.314a.628.628,0,0,1,.032-.5s.276.085.4.127l.242-.854,1.163,2.449a4.245,4.245,0,0,1-1.833-1.225m1.748-8.966-.745-1.6c.428-.043.816-.089,1.167-.136-.232.36-.207,1.314-.423,1.737m2.542,5.326-.922-1.94c.4-.664.929-2.269,1.314-2.937a17.576,17.576,0,0,0-.392,4.878m2.385,2.319a94.1,94.1,0,0,0,2.157-12.476c.013-.6-.846-1.527-4.238-2.085a2.983,2.983,0,0,0-.279-1.113c-.215-.389-1.741.407-2.727-.52l-.014-.009c-.05-.064-.14-.439-.2-.537a64.9,64.9,0,0,1-3.371-6.036c1.134,1.024,2.6,2.33,2.956,2.643l.11.072c2.2.888,5.662,2.249,5.887,2.449.443.414,1.468-.271,1.653-.348.135-.05.161-.093.27.035A2.15,2.15,0,0,0,232.608,43h1.94l3.066,7.071Z" transform="translate(-209.572 -17.999)" fill="#fff"/>
    </g>
    <g id="Group_6" data-name="Group 6" transform="translate(56.367 41.046)">
      <path id="Path_19" data-name="Path 19" d="M75.047,86.3a2.493,2.493,0,0,1-.416-1.634,2.186,2.186,0,0,1,1.2-1.726,2.551,2.551,0,0,1,1.573-.386,2.651,2.651,0,0,1,1.619.839,10.875,10.875,0,0,0,2.821,2.043,8.351,8.351,0,0,0,3.7.727,12.543,12.543,0,0,0,1.526-.2,2.934,2.934,0,0,0,1.457-.726,2.249,2.249,0,0,0,.625-1.749,1.981,1.981,0,0,0-.694-1.589,5.916,5.916,0,0,0-1.827-1q-1.133-.409-2.52-.772-1.434-.407-2.937-.909a12.3,12.3,0,0,1-2.751-1.293,6.23,6.23,0,0,1-2.035-2.111A6.367,6.367,0,0,1,75.6,72.5,5.908,5.908,0,0,1,76.9,68.64a8.439,8.439,0,0,1,3.353-2.451,11.074,11.074,0,0,1,4.325-.863,14.215,14.215,0,0,1,3.006.341,11.893,11.893,0,0,1,3.006,1.089,7.385,7.385,0,0,1,2.4,1.974,3.194,3.194,0,0,1,.6,1.635,1.937,1.937,0,0,1-.879,1.725,2.263,2.263,0,0,1-1.619.476,2.467,2.467,0,0,1-1.526-.611,5.451,5.451,0,0,0-2.1-1.59,7.346,7.346,0,0,0-3.03-.591,7.906,7.906,0,0,0-1.5.159,2.986,2.986,0,0,0-1.41.681,2.446,2.446,0,0,0,.092,3.315,5.276,5.276,0,0,0,1.873,1q1.179.386,2.52.75,1.387.362,2.821.862a11.259,11.259,0,0,1,2.636,1.316,6.29,6.29,0,0,1,1.943,2.111,6.569,6.569,0,0,1,.739,3.29A5.9,5.9,0,0,1,92.761,87.2a8.765,8.765,0,0,1-3.469,2.474,11.27,11.27,0,0,1-4.255.839,16.848,16.848,0,0,1-5.458-.93A9.4,9.4,0,0,1,75.047,86.3" transform="translate(-74.626 -56.307)" fill="#f26522"/>
      <path id="Path_20" data-name="Path 20" d="M123.112,65.325a17.361,17.361,0,0,1,4.6.544,7.527,7.527,0,0,1,3.052,1.521,3.041,3.041,0,0,1,1.087,2.338,2.914,2.914,0,0,1-.555,1.7,1.849,1.849,0,0,1-1.619.795,3.2,3.2,0,0,1-1.226-.2,3.24,3.24,0,0,1-.855-.522,4.909,4.909,0,0,0-.879-.591,4.272,4.272,0,0,0-1.411-.431,9.374,9.374,0,0,0-1.41-.159,7.568,7.568,0,0,0-4,1,6.708,6.708,0,0,0-2.52,2.7,8.442,8.442,0,0,0-.879,3.926,8.157,8.157,0,0,0,.9,3.882,6.96,6.96,0,0,0,2.5,2.7,6.781,6.781,0,0,0,3.678,1,12.439,12.439,0,0,0,1.989-.137,4.977,4.977,0,0,0,1.388-.409,8.426,8.426,0,0,0,1.157-.771,2.4,2.4,0,0,1,1.526-.409,2.312,2.312,0,0,1,1.85.749,2.712,2.712,0,0,1,.648,1.838,2.592,2.592,0,0,1-1.295,2.066,10.487,10.487,0,0,1-3.4,1.5,17.461,17.461,0,0,1-4.555.567,11.816,11.816,0,0,1-6.337-1.655,11.157,11.157,0,0,1-4.139-4.517,13.9,13.9,0,0,1-1.457-6.4,13.453,13.453,0,0,1,1.55-6.559,11.366,11.366,0,0,1,4.3-4.449,12.256,12.256,0,0,1,6.313-1.611" transform="translate(-86.339 -56.306)" fill="#f26522"/>
      <path id="Path_21" data-name="Path 21" d="M171.97,71.583V83.421a2.778,2.778,0,0,1-.783,2.013,2.856,2.856,0,0,1-3.979,0,2.781,2.781,0,0,1-.783-2.013V71.583a9.51,9.51,0,0,0-.371-2.755,3.776,3.776,0,0,0-1.342-1.966,4.5,4.5,0,0,0-2.778-.742,5.765,5.765,0,0,0-3,.742,4.728,4.728,0,0,0-1.871,1.966,5.961,5.961,0,0,0-.63,2.755V83.421a2.778,2.778,0,0,1-.783,2.013,2.856,2.856,0,0,1-3.979,0,2.781,2.781,0,0,1-.783-2.013V54.835a2.78,2.78,0,0,1,.783-2.013,2.858,2.858,0,0,1,3.979,0,2.777,2.777,0,0,1,.783,2.013V65.09c.135-.2.295-.4.465-.612a10.121,10.121,0,0,1,1.8-1.684,9.706,9.706,0,0,1,2.361-1.271,7.869,7.869,0,0,1,2.82-.489,7.764,7.764,0,0,1,5.068,1.436,7.256,7.256,0,0,1,2.378,3.815,20.008,20.008,0,0,1,.648,5.3" transform="translate(-99.216 -52.015)" fill="#f26522"/>
      <path id="Path_22" data-name="Path 22" d="M298.865,83.419a2.764,2.764,0,0,1-2.821,2.821,2.6,2.6,0,0,1-1.943-.81,2.773,2.773,0,0,1-.786-2.012V54.834a2.764,2.764,0,0,1,2.821-2.82,2.578,2.578,0,0,1,1.965.809,2.815,2.815,0,0,1,.764,2.011Z" transform="translate(-145.145 -52.014)" fill="#f26522"/>
      <path id="Path_23" data-name="Path 23" d="M218.243,79.339a12.622,12.622,0,0,1-12.56,11.2,12.419,12.419,0,0,1-1.413-.082,12.613,12.613,0,0,1,.016-25.065,2.344,2.344,0,0,1,1.816.585,2.376,2.376,0,0,1-1.325,4.135,7.869,7.869,0,1,0,8.746,8.74,2.372,2.372,0,0,1,4.136-1.318,2.342,2.342,0,0,1,.583,1.81" transform="translate(-112.827 -56.322)" fill="#f26522"/>
      <path id="Path_24" data-name="Path 24" d="M270.421,77.948a13.77,13.77,0,0,1-.077,1.413,12.649,12.649,0,0,1-11.1,11.1,13.7,13.7,0,0,1-1.413.077,12.644,12.644,0,0,1-12.56-11.2,2.335,2.335,0,0,1,.585-1.81,2.371,2.371,0,0,1,4.134,1.318,7.869,7.869,0,1,0,8.74-8.739,2.372,2.372,0,0,1-1.319-4.136,2.312,2.312,0,0,1,1.811-.585,12.615,12.615,0,0,1,11.2,12.56" transform="translate(-129.649 -56.321)" fill="#f26522"/>
    </g>
  </g>
</svg>
