<svg xmlns="http://www.w3.org/2000/svg" width="24" height="24" viewBox="0 0 24 24">
  <g id="show" transform="translate(-557 -339)">
    <path id="Path_33258" data-name="Path 33258" d="M1393.349-475.768a4.321,4.321,0,0,0-.517-.582,12.192,12.192,0,0,0-5.469-3.007c-.021-.006-.042-.007-.063-.012-.335-.078-.676-.136-1.019-.184a11.655,11.655,0,0,0-9.946,3.774c-.915.983-.332,2.149.487,2.932a11.842,11.842,0,0,0,8.046,3.371,11.818,11.818,0,0,0,5.77-1.648C1392.185-472.037,1394.815-473.765,1393.349-475.768Zm-8.524,4.218a3.011,3.011,0,0,1-3.011-3.011,3.011,3.011,0,0,1,3.011-3.011,3.01,3.01,0,0,1,3.01,3.011A3.01,3.01,0,0,1,1384.825-471.55Z" transform="translate(-815.87 825.646)" fill="#949ea0" opacity="0.503"/>
    <rect id="Rectangle_7352" data-name="Rectangle 7352" width="24" height="24" transform="translate(557 339)" fill="none"/>
  </g>
</svg>
